<!-- icon666.com - MILLIONS vector ICONS FREE --><svg id="Layer_1" enable-background="new 0 0 512 512" viewBox="0 0 512 512" xmlns="http://www.w3.org/2000/svg"><g><g><path d="m456.832 0h-401.664c-30.42 0-55.168 24.747-55.168 55.166v337.4c0 30.419 24.748 55.167 55.168 55.167h130.352l59.874 59.873c2.812 2.814 6.627 4.394 10.606 4.394s7.794-1.58 10.606-4.394l59.872-59.873h130.354c30.42 0 55.168-24.748 55.168-55.167v-337.4c0-30.419-24.748-55.166-55.168-55.166z" fill="#e7f0ef"></path><path d="m456.832 0h-200.83v512c3.978 0 7.793-1.58 10.604-4.394l59.872-59.873h130.354c30.42 0 55.168-24.748 55.168-55.167v-337.4c0-30.419-24.748-55.166-55.168-55.166z" fill="#c5e1e6"></path><path d="m396.967 182.754c-1.764-5.431-6.458-9.388-12.108-10.209l-79.737-11.589-35.668-72.262c-2.527-5.12-7.742-8.361-13.451-8.361-5.71 0-10.924 3.241-13.451 8.361l-35.666 72.262-79.743 11.589c-5.65.82-10.345 4.778-12.108 10.209-1.765 5.43-.293 11.391 3.796 15.376l57.704 56.247-13.618 79.421c-.965 5.628 1.349 11.314 5.968 14.671 2.613 1.898 5.708 2.864 8.818 2.864 2.387 0 4.783-.569 6.979-1.723l71.322-37.497 71.329 37.497c2.194 1.153 4.591 1.723 6.978 1.723h.045c8.274-.013 14.978-6.724 14.978-15 0-1.152-.13-2.274-.376-3.352l-13.489-78.605 57.705-56.246c4.086-3.985 5.557-9.946 3.793-15.376z" fill="#ffd400"></path></g><path d="m396.967 182.754c-1.764-5.431-6.458-9.388-12.108-10.209l-79.737-11.589-35.668-72.262c-2.527-5.12-7.742-8.361-13.451-8.361v231.78l71.329 37.497c2.194 1.153 4.591 1.723 6.978 1.723h.045c8.274-.013 14.978-6.724 14.978-15 0-1.152-.13-2.274-.376-3.352l-13.489-78.605 57.705-56.246c4.087-3.985 5.558-9.946 3.794-15.376z" fill="#ff9f04"></path></g></svg>